<svg xmlns="http://www.w3.org/2000/svg" xmlns:xlink="http://www.w3.org/1999/xlink" width="500" zoomAndPan="magnify" viewBox="0 0 375 374.999991" height="500" preserveAspectRatio="xMidYMid meet" version="1.0"><defs><g/><clipPath id="11b394e566"><path d="M 163 92.585938 L 172 92.585938 L 172 215 L 163 215 Z M 163 92.585938 " clip-rule="nonzero"/></clipPath></defs><path fill="#231b26" d="M 198.417969 172.261719 C 198.433594 184.011719 198.480469 195.761719 198.398438 207.519531 C 198.382812 210.695312 199.257812 214.964844 194.402344 214.878906 C 189.632812 214.789062 190.492188 210.566406 190.480469 207.375 C 190.460938 183.4375 190.472656 159.53125 190.566406 135.613281 C 190.582031 132.4375 189.851562 128.214844 194.667969 128.246094 C 199.792969 128.292969 198.277344 132.851562 198.320312 135.765625 C 198.503906 147.925781 198.398438 160.09375 198.417969 172.261719 Z M 198.417969 172.261719 " fill-opacity="1" fill-rule="evenodd"/><path fill="#231b26" d="M 217.011719 183.261719 C 217.019531 175.722656 217.015625 168.179688 217.019531 160.636719 C 217.019531 157.253906 216.621094 153.449219 221.410156 153.617188 C 225.625 153.765625 224.90625 157.402344 224.917969 160.15625 C 224.980469 176.074219 224.96875 191.996094 224.890625 207.933594 C 224.871094 211.113281 225.53125 215.390625 220.617188 214.953125 C 215.898438 214.539062 217.085938 210.269531 217.039062 207.148438 C 216.921875 199.1875 217.003906 191.21875 217.011719 183.261719 Z M 217.011719 183.261719 " fill-opacity="1" fill-rule="evenodd"/><path fill="#231b26" d="M 243.957031 181.726562 C 243.960938 171.703125 243.945312 161.6875 243.976562 151.671875 C 243.980469 149.078125 244.296875 146.480469 247.53125 146.445312 C 250.765625 146.398438 251.117188 148.871094 251.117188 151.550781 C 251.117188 170.757812 251.148438 189.957031 251.105469 209.179688 C 251.09375 212.054688 251.28125 215.445312 247.023438 214.957031 C 243.707031 214.574219 244 211.695312 243.984375 209.292969 C 243.914062 200.101562 243.953125 190.914062 243.957031 181.726562 Z M 243.957031 181.726562 " fill-opacity="1" fill-rule="evenodd"/><path fill="#231b26" d="M 237.984375 192.1875 C 237.984375 198.050781 238.023438 203.914062 237.972656 209.777344 C 237.949219 212.410156 237.480469 214.871094 234.3125 215.035156 C 231.230469 215.195312 230.238281 213.152344 230.234375 210.308594 C 230.210938 197.742188 230.21875 185.179688 230.203125 172.621094 C 230.203125 169.65625 231.320312 167.925781 234.359375 168.101562 C 237.613281 168.296875 237.910156 170.777344 237.925781 173.351562 C 237.980469 179.636719 237.949219 185.910156 237.949219 192.1875 C 237.957031 192.1875 237.972656 192.1875 237.984375 192.1875 Z M 237.984375 192.1875 " fill-opacity="1" fill-rule="evenodd"/><path fill="#231b26" d="M 131.8125 192.160156 C 131.8125 198.007812 131.855469 203.871094 131.789062 209.71875 C 131.761719 212.324219 131.308594 214.855469 128.136719 214.96875 C 125.1875 215.074219 123.925781 213.203125 123.929688 210.273438 C 123.9375 197.738281 124 185.191406 124.011719 172.660156 C 124.015625 169.679688 125.132812 167.953125 128.160156 168.097656 C 131.445312 168.257812 131.699219 170.828125 131.734375 173.351562 C 131.820312 179.621094 131.765625 185.890625 131.765625 192.164062 L 131.8125 192.164062 Z M 131.8125 192.160156 " fill-opacity="1" fill-rule="evenodd"/><path fill="#231b26" d="M 144.683594 186.878906 C 144.683594 194.429688 144.726562 201.976562 144.65625 209.527344 C 144.640625 212.050781 144.480469 214.867188 141.171875 214.800781 C 137.921875 214.746094 137.75 211.96875 137.738281 209.417969 C 137.6875 193.910156 137.667969 178.394531 137.6875 162.890625 C 137.6875 160.292969 137.96875 157.722656 141.316406 157.746094 C 144.757812 157.765625 144.699219 160.511719 144.714844 162.996094 C 144.769531 170.957031 144.738281 178.921875 144.738281 186.882812 C 144.714844 186.878906 144.699219 186.878906 144.683594 186.878906 Z M 144.683594 186.878906 " fill-opacity="1" fill-rule="evenodd"/><path fill="#231b26" d="M 211.242188 191.523438 C 211.238281 197.777344 211.304688 204.023438 211.199219 210.269531 C 211.152344 212.882812 210.554688 215.355469 207.226562 214.921875 C 204.777344 214.597656 204.125 212.636719 204.113281 210.476562 C 204.074219 196.730469 204.109375 182.980469 204.125 169.242188 C 204.128906 166.773438 205.304688 165.566406 207.648438 165.445312 C 211.078125 165.261719 211.253906 167.667969 211.25 170.296875 C 211.25 177.375 211.253906 184.445312 211.242188 191.523438 Z M 211.242188 191.523438 " fill-opacity="1" fill-rule="evenodd"/><path fill="#231b26" d="M 278.222656 199.941406 C 275.546875 204.65625 281.605469 214.1875 274.101562 214.3125 C 267.03125 214.425781 270.320312 204.957031 270.65625 200.15625 C 271.015625 194.941406 266.082031 185.03125 274.515625 185.109375 C 281.316406 185.160156 275.890625 194.878906 278.222656 199.941406 Z M 278.222656 199.941406 " fill-opacity="1" fill-rule="evenodd"/><path fill="#231b26" d="M 118.980469 198.230469 C 115.527344 203.410156 123.382812 214.179688 114.121094 214.179688 C 107.644531 214.179688 111.386719 203.753906 111.402344 198.277344 C 111.425781 192.472656 107.667969 181.5625 114.699219 181.648438 C 122.546875 181.738281 115.601562 192.722656 118.980469 198.230469 Z M 118.980469 198.230469 " fill-opacity="1" fill-rule="evenodd"/><path fill="#231b26" d="M 105.191406 197.902344 C 102.335938 203.367188 109.035156 213.929688 100.769531 214.175781 C 94.347656 214.359375 97.761719 203.886719 97.796875 198.429688 C 97.839844 192.574219 93.925781 181.6875 100.875 181.625 C 108.910156 181.550781 102.414062 192.417969 105.191406 197.902344 Z M 105.191406 197.902344 " fill-opacity="1" fill-rule="evenodd"/><path fill="#231b26" d="M 265.332031 203.347656 C 263.605469 207.824219 267.457031 215.253906 260.535156 214.609375 C 253.449219 213.953125 257.320312 206.515625 257.058594 202.234375 C 256.835938 198.449219 254.253906 191.089844 261.15625 191.695312 C 268.65625 192.355469 262.269531 200.273438 265.332031 203.347656 Z M 265.332031 203.347656 " fill-opacity="1" fill-rule="evenodd"/><g clip-path="url(#11b394e566)"><path fill="#231b26" d="M 163.949219 152.710938 C 163.949219 135.136719 163.902344 117.5625 163.992188 99.988281 C 164.015625 96.929688 162.832031 92.59375 167.800781 92.585938 C 172.925781 92.570312 171.492188 97.089844 171.496094 100.019531 C 171.605469 135.589844 171.625 171.152344 171.527344 206.738281 C 171.515625 210.125 172.691406 215.398438 167.054688 214.832031 C 162.46875 214.375 164.042969 209.707031 164.019531 206.703125 C 163.886719 188.695312 163.949219 170.699219 163.949219 152.710938 Z M 163.949219 152.710938 " fill-opacity="1" fill-rule="evenodd"/></g><path fill="#231b26" d="M 150.773438 171.6875 C 150.773438 160 150.730469 148.316406 150.804688 136.632812 C 150.820312 133.816406 150.390625 130.398438 154.628906 130.472656 C 158.761719 130.558594 158.382812 133.890625 158.390625 136.734375 C 158.433594 160.933594 158.445312 185.140625 158.417969 209.363281 C 158.414062 211.863281 158.359375 214.640625 155.160156 214.976562 C 151.199219 215.390625 150.757812 212.289062 150.738281 209.253906 C 150.671875 196.730469 150.710938 184.199219 150.710938 171.683594 C 150.730469 171.6875 150.753906 171.6875 150.773438 171.6875 Z M 150.773438 171.6875 " fill-opacity="1" fill-rule="evenodd"/><path fill="#231b26" d="M 177.640625 162.816406 C 177.640625 148.558594 177.535156 134.300781 177.722656 120.042969 C 177.761719 116.785156 175.75 111.40625 181.566406 111.546875 C 186.464844 111.675781 184.742188 116.5 184.757812 119.425781 C 184.875 148.359375 184.894531 177.292969 184.726562 206.246094 C 184.707031 209.4375 186.699219 215.152344 180.921875 214.734375 C 175.589844 214.351562 177.804688 208.867188 177.746094 205.609375 C 177.5 191.339844 177.640625 177.078125 177.640625 162.816406 Z M 177.640625 162.816406 " fill-opacity="1" fill-rule="evenodd"/><g fill="#231b26" fill-opacity="1"><g transform="translate(48.949589, 258.746659)"><g><path d="M 7.472656 0 L 7.472656 -17.507812 L 14.800781 -7.363281 L 16.019531 -7.363281 L 23.417969 -17.472656 L 23.417969 0 L 27.945312 0 L 27.945312 -24.726562 L 24 -24.726562 L 15.417969 -13.199219 L 6.890625 -24.726562 L 2.945312 -24.726562 L 2.945312 0 Z M 7.472656 0 "/></g></g></g><g fill="#231b26" fill-opacity="1"><g transform="translate(79.817427, 258.746659)"><g><path d="M 10.980469 0.5625 C 15.929688 0.5625 19.746094 -2.054688 19.746094 -8.710938 L 19.746094 -18.691406 L 15.363281 -18.691406 L 15.363281 -8.835938 C 15.363281 -5.417969 13.910156 -3.527344 10.964844 -3.527344 C 8.035156 -3.527344 6.546875 -5.382812 6.546875 -8.835938 L 6.546875 -18.691406 L 2.183594 -18.691406 L 2.183594 -8.710938 C 2.183594 -2.054688 5.980469 0.5625 10.980469 0.5625 Z M 10.980469 0.5625 "/></g></g></g><g fill="#231b26" fill-opacity="1"><g transform="translate(101.741227, 258.746659)"><g><path d="M 9.308594 0.5625 C 13.820312 0.5625 17.164062 -1.4375 17.164062 -5.546875 C 17.164062 -9.507812 14.144531 -10.636719 10.273438 -11.21875 C 7.054688 -11.726562 6.363281 -12.183594 6.363281 -13.582031 C 6.363281 -14.710938 7.199219 -15.65625 9.089844 -15.65625 C 11.128906 -15.65625 12.21875 -14.671875 12.308594 -13.292969 L 16.617188 -13.253906 C 16.617188 -16.820312 13.582031 -19.253906 9.074219 -19.253906 C 4.507812 -19.253906 2.035156 -16.929688 2.035156 -13.492188 C 2.035156 -9.617188 5.128906 -8.183594 8.726562 -7.710938 C 11.273438 -7.328125 12.671875 -6.871094 12.671875 -5.292969 C 12.671875 -3.871094 11.617188 -2.925781 9.347656 -2.925781 C 6.835938 -2.925781 5.5625 -4.21875 5.492188 -5.925781 L 1.273438 -5.945312 C 1.273438 -2.65625 3.816406 0.5625 9.308594 0.5625 Z M 9.308594 0.5625 "/></g></g></g><g fill="#231b26" fill-opacity="1"><g transform="translate(119.956524, 258.746659)"><g><path d="M 4.746094 -21.601562 C 6.527344 -21.601562 7.527344 -22.710938 7.527344 -24.128906 C 7.527344 -25.492188 6.527344 -26.636719 4.765625 -26.636719 C 3.035156 -26.636719 2.035156 -25.492188 2.035156 -24.128906 C 2.035156 -22.726562 3.054688 -21.601562 4.746094 -21.601562 Z M 6.980469 0 L 6.980469 -18.691406 L 2.582031 -18.691406 L 2.582031 0 Z M 6.980469 0 "/></g></g></g><g fill="#231b26" fill-opacity="1"><g transform="translate(129.500473, 258.746659)"><g><path d="M 10.910156 0.5625 C 15.710938 0.5625 19.238281 -2.507812 20.199219 -6.835938 L 15.726562 -6.835938 C 14.910156 -4.507812 13.054688 -3.507812 10.925781 -3.507812 C 8.238281 -3.507812 5.617188 -5.65625 5.617188 -9.347656 C 5.617188 -13.019531 8.21875 -15.164062 10.925781 -15.164062 C 13.054688 -15.164062 14.890625 -14.164062 15.726562 -12.089844 L 20.21875 -12.089844 C 19.164062 -16.199219 15.726562 -19.253906 10.910156 -19.253906 C 5.328125 -19.253906 1.253906 -14.78125 1.253906 -9.347656 C 1.253906 -3.890625 5.328125 0.5625 10.910156 0.5625 Z M 10.910156 0.5625 "/></g></g></g><g fill="#231b26" fill-opacity="1"><g transform="translate(150.678942, 258.746659)"><g><path d="M 12.65625 0 L 12.65625 -20.691406 L 20.019531 -20.691406 L 20.019531 -24.726562 L 0.78125 -24.726562 L 0.78125 -20.691406 L 8.144531 -20.691406 L 8.144531 0 Z M 12.65625 0 "/></g></g></g><g fill="#231b26" fill-opacity="1"><g transform="translate(171.475648, 258.746659)"><g><path d="M 11.074219 0.5625 C 16.835938 0.5625 20.964844 -3.835938 20.964844 -9.347656 C 20.964844 -14.820312 16.835938 -19.253906 11.089844 -19.253906 C 5.363281 -19.253906 1.253906 -14.800781 1.253906 -9.347656 C 1.253906 -3.855469 5.382812 0.5625 11.074219 0.5625 Z M 11.109375 -3.527344 C 7.964844 -3.527344 5.617188 -5.964844 5.617188 -9.347656 C 5.617188 -12.710938 7.964844 -15.183594 11.109375 -15.183594 C 14.253906 -15.183594 16.601562 -12.710938 16.601562 -9.347656 C 16.601562 -5.964844 14.253906 -3.527344 11.109375 -3.527344 Z M 11.109375 -3.527344 "/></g></g></g><g fill="#231b26" fill-opacity="1"><g transform="translate(193.690311, 258.746659)"><g><path d="M 6.980469 6.382812 L 6.980469 -0.855469 L 6.890625 -3.019531 C 8.128906 -0.855469 10.507812 0.5625 13.238281 0.5625 C 18.457031 0.5625 22.292969 -3.855469 22.292969 -9.347656 C 22.292969 -14.800781 18.492188 -19.238281 13.183594 -19.238281 C 10.492188 -19.238281 8.109375 -17.800781 6.765625 -15.546875 L 6.765625 -18.691406 L 2.582031 -18.691406 L 2.582031 6.382812 Z M 12.4375 -3.492188 C 9.453125 -3.492188 6.925781 -5.925781 6.925781 -9.347656 C 6.925781 -12.617188 9.382812 -15.183594 12.417969 -15.183594 C 15.453125 -15.183594 17.929688 -12.855469 17.929688 -9.347656 C 17.929688 -5.726562 15.402344 -3.492188 12.4375 -3.492188 Z M 12.4375 -3.492188 "/></g></g></g><g fill="#231b26" fill-opacity="1"><g transform="translate(217.232042, 258.746659)"><g><path d="M 18.636719 0 L 18.636719 -4.054688 L 7.472656 -4.054688 L 7.472656 -24.726562 L 2.945312 -24.726562 L 2.945312 0 Z M 18.636719 0 "/></g></g></g><g fill="#231b26" fill-opacity="1"><g transform="translate(236.592618, 258.746659)"><g><path d="M 10.054688 0.5625 C 13.089844 0.5625 15.5625 -0.816406 16.78125 -3.144531 L 16.78125 0 L 20.964844 0 L 20.964844 -18.691406 L 16.78125 -18.691406 L 16.78125 -15.527344 C 15.582031 -17.855469 13.089844 -19.253906 10.035156 -19.253906 C 5.035156 -19.253906 1.253906 -14.800781 1.253906 -9.347656 C 1.253906 -3.855469 5 0.5625 10.054688 0.5625 Z M 11.109375 -3.507812 C 8.144531 -3.507812 5.617188 -5.710938 5.617188 -9.347656 C 5.617188 -12.855469 8.089844 -15.183594 11.109375 -15.183594 C 14.164062 -15.183594 16.601562 -12.601562 16.601562 -9.347656 C 16.601562 -6.035156 14.183594 -3.507812 11.109375 -3.507812 Z M 11.109375 -3.507812 "/></g></g></g><g fill="#231b26" fill-opacity="1"><g transform="translate(260.13436, 258.746659)"><g><path d="M 14.074219 0 L 14.074219 -3.65625 L 11.183594 -3.65625 C 9.78125 -3.65625 8.472656 -4.292969 8.472656 -6.910156 L 8.472656 -14.910156 L 14.074219 -14.910156 L 14.074219 -18.691406 L 8.472656 -18.691406 L 8.472656 -24.199219 L 4.074219 -24.164062 L 4.074219 -18.691406 L 0.199219 -18.691406 L 0.199219 -14.910156 L 4.074219 -14.910156 L 4.074219 -7.109375 C 4.074219 -0.945312 7.453125 0 10.273438 0 Z M 14.074219 0 "/></g></g></g><g fill="#231b26" fill-opacity="1"><g transform="translate(275.186522, 258.746659)"><g><path d="M 4.746094 -21.601562 C 6.527344 -21.601562 7.527344 -22.710938 7.527344 -24.128906 C 7.527344 -25.492188 6.527344 -26.636719 4.765625 -26.636719 C 3.035156 -26.636719 2.035156 -25.492188 2.035156 -24.128906 C 2.035156 -22.726562 3.054688 -21.601562 4.746094 -21.601562 Z M 6.980469 0 L 6.980469 -18.691406 L 2.582031 -18.691406 L 2.582031 0 Z M 6.980469 0 "/></g></g></g><g fill="#231b26" fill-opacity="1"><g transform="translate(284.730459, 258.746659)"><g><path d="M 6.980469 0 L 6.980469 -9.546875 C 6.980469 -13.199219 9.347656 -15.199219 11.925781 -15.199219 C 14.582031 -15.199219 16.253906 -13.691406 16.253906 -9.980469 L 16.253906 0 L 20.65625 0 L 20.65625 -10.074219 C 20.65625 -15.945312 18.164062 -19.253906 13.144531 -19.253906 C 10.273438 -19.253906 7.835938 -17.820312 6.765625 -15.78125 L 6.765625 -18.691406 L 2.582031 -18.691406 L 2.582031 0 Z M 6.980469 0 "/></g></g></g><g fill="#231b26" fill-opacity="1"><g transform="translate(307.817722, 258.746659)"><g><path d="M 9.308594 0.5625 C 13.820312 0.5625 17.164062 -1.4375 17.164062 -5.546875 C 17.164062 -9.507812 14.144531 -10.636719 10.273438 -11.21875 C 7.054688 -11.726562 6.363281 -12.183594 6.363281 -13.582031 C 6.363281 -14.710938 7.199219 -15.65625 9.089844 -15.65625 C 11.128906 -15.65625 12.21875 -14.671875 12.308594 -13.292969 L 16.617188 -13.253906 C 16.617188 -16.820312 13.582031 -19.253906 9.074219 -19.253906 C 4.507812 -19.253906 2.035156 -16.929688 2.035156 -13.492188 C 2.035156 -9.617188 5.128906 -8.183594 8.726562 -7.710938 C 11.273438 -7.328125 12.671875 -6.871094 12.671875 -5.292969 C 12.671875 -3.871094 11.617188 -2.925781 9.347656 -2.925781 C 6.835938 -2.925781 5.5625 -4.21875 5.492188 -5.925781 L 1.273438 -5.945312 C 1.273438 -2.65625 3.816406 0.5625 9.308594 0.5625 Z M 9.308594 0.5625 "/></g></g></g><g fill="#231b26" fill-opacity="1"><g transform="translate(72.033625, 283.147832)"><g><path d="M 7.140625 -7.4375 L 4.359375 -7.4375 L 4.359375 0 L 2.875 0 L 2.875 -7.4375 L 0.109375 -7.4375 L 0.109375 -8.765625 L 7.140625 -8.765625 Z M 7.140625 -7.4375 "/></g></g></g><g fill="#231b26" fill-opacity="1"><g transform="translate(88.665475, 283.147832)"><g><path d="M 6.8125 -1.984375 L 2.390625 -1.984375 L 1.546875 0 L 0.015625 0 L 3.890625 -8.765625 L 5.40625 -8.765625 L 9.234375 0 L 7.65625 0 Z M 6.25 -3.296875 L 4.59375 -7.1875 L 2.9375 -3.296875 Z M 6.25 -3.296875 "/></g></g></g><g fill="#231b26" fill-opacity="1"><g transform="translate(107.28917, 283.147832)"><g><path d="M 2.625 -1.34375 L 6.421875 -1.34375 L 6.421875 0 L 1.15625 0 L 1.15625 -8.765625 L 2.625 -8.765625 Z M 2.625 -1.34375 "/></g></g></g><g fill="#231b26" fill-opacity="1"><g transform="translate(123.357282, 283.147832)"><g><path d="M 7.421875 -7.4375 L 2.625 -7.4375 L 2.625 -5.078125 L 6.921875 -5.078125 L 6.921875 -3.75 L 2.625 -3.75 L 2.625 -1.328125 L 7.5625 -1.328125 L 7.5625 0 L 1.15625 0 L 1.15625 -8.765625 L 7.421875 -8.765625 Z M 7.421875 -7.4375 "/></g></g></g><g fill="#231b26" fill-opacity="1"><g transform="translate(140.953745, 283.147832)"><g><path d="M 8.765625 0 L 7.3125 0 L 2.625 -6.296875 L 2.625 0 L 1.15625 0 L 1.15625 -8.765625 L 2.609375 -8.765625 L 7.3125 -2.46875 L 7.3125 -8.765625 L 8.765625 -8.765625 Z M 8.765625 0 "/></g></g></g><g fill="#231b26" fill-opacity="1"><g transform="translate(160.253925, 283.147832)"><g><path d="M 7.140625 -7.4375 L 4.359375 -7.4375 L 4.359375 0 L 2.875 0 L 2.875 -7.4375 L 0.109375 -7.4375 L 0.109375 -8.765625 L 7.140625 -8.765625 Z M 7.140625 -7.4375 "/></g></g></g><g fill="#231b26" fill-opacity="1"><g transform="translate(176.885771, 283.147832)"><g><path d="M 1.765625 -7.53125 C 2.660156 -8.382812 3.765625 -8.8125 5.078125 -8.8125 C 6.390625 -8.8125 7.488281 -8.382812 8.375 -7.53125 C 9.269531 -6.6875 9.71875 -5.632812 9.71875 -4.375 C 9.71875 -3.125 9.269531 -2.070312 8.375 -1.21875 C 7.488281 -0.363281 6.390625 0.0625 5.078125 0.0625 C 3.765625 0.0625 2.660156 -0.363281 1.765625 -1.21875 C 0.867188 -2.070312 0.421875 -3.125 0.421875 -4.375 C 0.421875 -5.632812 0.867188 -6.6875 1.765625 -7.53125 Z M 5.09375 -7.484375 C 4.21875 -7.484375 3.472656 -7.179688 2.859375 -6.578125 C 2.242188 -5.984375 1.9375 -5.25 1.9375 -4.375 C 1.9375 -3.507812 2.242188 -2.773438 2.859375 -2.171875 C 3.484375 -1.566406 4.222656 -1.265625 5.078125 -1.265625 C 5.941406 -1.265625 6.675781 -1.566406 7.28125 -2.171875 C 7.894531 -2.773438 8.203125 -3.507812 8.203125 -4.375 C 8.203125 -5.25 7.894531 -5.984375 7.28125 -6.578125 C 6.675781 -7.179688 5.945312 -7.484375 5.09375 -7.484375 Z M 5.09375 -7.484375 "/></g></g></g><g fill="#231b26" fill-opacity="1"><g transform="translate(196.411439, 283.147832)"><g/></g></g><g fill="#231b26" fill-opacity="1"><g transform="translate(209.022003, 283.147832)"><g><path d="M 2.625 -1.34375 L 6.421875 -1.34375 L 6.421875 0 L 1.15625 0 L 1.15625 -8.765625 L 2.625 -8.765625 Z M 2.625 -1.34375 "/></g></g></g><g fill="#231b26" fill-opacity="1"><g transform="translate(225.090114, 283.147832)"><g><path d="M 6.8125 -1.984375 L 2.390625 -1.984375 L 1.546875 0 L 0.015625 0 L 3.890625 -8.765625 L 5.40625 -8.765625 L 9.234375 0 L 7.65625 0 Z M 6.25 -3.296875 L 4.59375 -7.1875 L 2.9375 -3.296875 Z M 6.25 -3.296875 "/></g></g></g><g fill="#231b26" fill-opacity="1"><g transform="translate(243.713804, 283.147832)"><g><path d="M 7.140625 -7.4375 L 4.359375 -7.4375 L 4.359375 0 L 2.875 0 L 2.875 -7.4375 L 0.109375 -7.4375 L 0.109375 -8.765625 L 7.140625 -8.765625 Z M 7.140625 -7.4375 "/></g></g></g><g fill="#231b26" fill-opacity="1"><g transform="translate(260.345651, 283.147832)"><g><path d="M 2.625 0 L 1.15625 0 L 1.15625 -8.765625 L 2.625 -8.765625 Z M 2.625 0 "/></g></g></g><g fill="#231b26" fill-opacity="1"><g transform="translate(273.50742, 283.147832)"><g><path d="M 8.765625 0 L 7.3125 0 L 2.625 -6.296875 L 2.625 0 L 1.15625 0 L 1.15625 -8.765625 L 2.609375 -8.765625 L 7.3125 -2.46875 L 7.3125 -8.765625 L 8.765625 -8.765625 Z M 8.765625 0 "/></g></g></g><g fill="#231b26" fill-opacity="1"><g transform="translate(292.807605, 283.147832)"><g><path d="M 1.765625 -7.53125 C 2.660156 -8.382812 3.765625 -8.8125 5.078125 -8.8125 C 6.390625 -8.8125 7.488281 -8.382812 8.375 -7.53125 C 9.269531 -6.6875 9.71875 -5.632812 9.71875 -4.375 C 9.71875 -3.125 9.269531 -2.070312 8.375 -1.21875 C 7.488281 -0.363281 6.390625 0.0625 5.078125 0.0625 C 3.765625 0.0625 2.660156 -0.363281 1.765625 -1.21875 C 0.867188 -2.070312 0.421875 -3.125 0.421875 -4.375 C 0.421875 -5.632812 0.867188 -6.6875 1.765625 -7.53125 Z M 5.09375 -7.484375 C 4.21875 -7.484375 3.472656 -7.179688 2.859375 -6.578125 C 2.242188 -5.984375 1.9375 -5.25 1.9375 -4.375 C 1.9375 -3.507812 2.242188 -2.773438 2.859375 -2.171875 C 3.484375 -1.566406 4.222656 -1.265625 5.078125 -1.265625 C 5.941406 -1.265625 6.675781 -1.566406 7.28125 -2.171875 C 7.894531 -2.773438 8.203125 -3.507812 8.203125 -4.375 C 8.203125 -5.25 7.894531 -5.984375 7.28125 -6.578125 C 6.675781 -7.179688 5.945312 -7.484375 5.09375 -7.484375 Z M 5.09375 -7.484375 "/></g></g></g></svg>